%TF.GenerationSoftware,KiCad,Pcbnew,8.0.8*%
%TF.CreationDate,2025-02-16T12:10:03-08:00*%
%TF.ProjectId,514_pcb,3531345f-7063-4622-9e6b-696361645f70,rev?*%
%TF.SameCoordinates,Original*%
%TF.FileFunction,Copper,L2,Bot*%
%TF.FilePolarity,Positive*%
%FSLAX46Y46*%
G04 Gerber Fmt 4.6, Leading zero omitted, Abs format (unit mm)*
G04 Created by KiCad (PCBNEW 8.0.8) date 2025-02-16 12:10:03*
%MOMM*%
%LPD*%
G01*
G04 APERTURE LIST*
G04 Aperture macros list*
%AMRoundRect*
0 Rectangle with rounded corners*
0 $1 Rounding radius*
0 $2 $3 $4 $5 $6 $7 $8 $9 X,Y pos of 4 corners*
0 Add a 4 corners polygon primitive as box body*
4,1,4,$2,$3,$4,$5,$6,$7,$8,$9,$2,$3,0*
0 Add four circle primitives for the rounded corners*
1,1,$1+$1,$2,$3*
1,1,$1+$1,$4,$5*
1,1,$1+$1,$6,$7*
1,1,$1+$1,$8,$9*
0 Add four rect primitives between the rounded corners*
20,1,$1+$1,$2,$3,$4,$5,0*
20,1,$1+$1,$4,$5,$6,$7,0*
20,1,$1+$1,$6,$7,$8,$9,0*
20,1,$1+$1,$8,$9,$2,$3,0*%
G04 Aperture macros list end*
%TA.AperFunction,Conductor*%
%ADD10C,0.200000*%
%TD*%
%TA.AperFunction,ComponentPad*%
%ADD11C,1.524000*%
%TD*%
%TA.AperFunction,ComponentPad*%
%ADD12R,1.700000X1.700000*%
%TD*%
%TA.AperFunction,ComponentPad*%
%ADD13O,1.700000X1.700000*%
%TD*%
%TA.AperFunction,ComponentPad*%
%ADD14RoundRect,0.250000X0.750000X0.400000X-0.750000X0.400000X-0.750000X-0.400000X0.750000X-0.400000X0*%
%TD*%
%TA.AperFunction,ComponentPad*%
%ADD15O,2.000000X1.300000*%
%TD*%
%TA.AperFunction,ViaPad*%
%ADD16C,0.600000*%
%TD*%
G04 APERTURE END LIST*
D10*
%TO.N,GND*%
X117500000Y-83500000D02*
X120000000Y-82500000D01*
X117500000Y-104500000D02*
X117500000Y-83500000D01*
%TO.N,Net-(MK1-VDD)*%
X112500000Y-99500000D02*
X112500000Y-83500000D01*
%TO.N,Net-(MK1-WS)*%
X106000000Y-110000000D02*
X135000000Y-110500000D01*
%TO.N,Net-(MK1-VDD)*%
X107000000Y-102500000D02*
X112500000Y-99500000D01*
%TO.N,Net-(MK1-BCLK)*%
X83000000Y-95500000D02*
X83000000Y-92000000D01*
X106000000Y-98500000D02*
X84500000Y-98500000D01*
X84500000Y-98500000D02*
X83000000Y-95500000D01*
%TO.N,Net-(MK1-WS)*%
X105000000Y-108000000D02*
X106000000Y-110000000D01*
%TD*%
D11*
%TO.P,U1,1,GPIO1/D0/A0*%
%TO.N,unconnected-(U1-GPIO1{slash}D0{slash}A0-Pad1)_1*%
X89260000Y-75960000D03*
%TO.P,U1,2,GPIO2/DA/A1*%
%TO.N,unconnected-(U1-GPIO2{slash}DA{slash}A1-Pad2)_1*%
X89260000Y-78500000D03*
%TO.P,U1,3,GPIO3/D2/A2*%
%TO.N,unconnected-(U1-GPIO3{slash}D2{slash}A2-Pad3)*%
X89260000Y-81040000D03*
%TO.P,U1,4,GPIO4/D3/A3*%
%TO.N,unconnected-(U1-GPIO4{slash}D3{slash}A3-Pad4)*%
X89260000Y-83580000D03*
%TO.P,U1,5,GPIO5/D4/I2C_SDA*%
%TO.N,Net-(MK1-WS)*%
X89260000Y-86120000D03*
%TO.P,U1,6,GPIO9/D5/I2C_SCL*%
%TO.N,Net-(MK1-BCLK)*%
X89260000Y-88660000D03*
%TO.P,U1,7,U0TXD/D6/TX*%
%TO.N,Net-(MK1-DATA)*%
X89260000Y-91200000D03*
%TO.P,U1,8,U0RXD/D7/RX*%
%TO.N,unconnected-(U1-U0RXD{slash}D7{slash}RX-Pad8)_1*%
X104500000Y-91200000D03*
%TO.P,U1,9,GPIO7/D8/A8/SCK*%
%TO.N,Net-(D1-CI)*%
X104500000Y-88660000D03*
%TO.P,U1,10,GPIO8/D9/A9/MISO*%
%TO.N,unconnected-(U1-GPIO8{slash}D9{slash}A9{slash}MISO-Pad10)_1*%
X104500000Y-86120000D03*
%TO.P,U1,11,GPIO9/D10/A10/MOSI*%
%TO.N,Net-(D1-DI)*%
X104500000Y-83580000D03*
%TO.P,U1,12,VCC_3V3*%
%TO.N,Net-(MK1-VDD)*%
X104500000Y-81040000D03*
%TO.P,U1,13,GND*%
%TO.N,GND*%
X104500000Y-78500000D03*
%TO.P,U1,14,VBUS*%
%TO.N,Net-(SW1-A)*%
X104500000Y-75960000D03*
%TD*%
D12*
%TO.P,SW1,1,A*%
%TO.N,Net-(SW1-A)*%
X115000000Y-72000000D03*
D13*
%TO.P,SW1,2,B*%
%TO.N,Net-(BT1-+)*%
X115000000Y-74540000D03*
%TO.P,SW1,3,C*%
%TO.N,unconnected-(SW1-C-Pad3)*%
X115000000Y-77080000D03*
%TD*%
D14*
%TO.P,BT1,1,+*%
%TO.N,Net-(BT1-+)*%
X129500000Y-76500000D03*
D15*
%TO.P,BT1,2,-*%
%TO.N,GND*%
X129500000Y-74500000D03*
%TD*%
D16*
%TO.N,GND*%
X120000000Y-82500000D03*
X117500000Y-104500000D03*
%TO.N,Net-(MK1-VDD)*%
X107000000Y-102500000D03*
X112500000Y-83500000D03*
%TO.N,Net-(MK1-WS)*%
X105000000Y-108000000D03*
X135000000Y-110500000D03*
%TO.N,Net-(MK1-BCLK)*%
X83000000Y-92000000D03*
X106000000Y-98500000D03*
%TD*%
M02*
