%TF.GenerationSoftware,KiCad,Pcbnew,8.0.8*%
%TF.CreationDate,2025-02-16T12:10:03-08:00*%
%TF.ProjectId,514_pcb,3531345f-7063-4622-9e6b-696361645f70,rev?*%
%TF.SameCoordinates,Original*%
%TF.FileFunction,Copper,L1,Top*%
%TF.FilePolarity,Positive*%
%FSLAX46Y46*%
G04 Gerber Fmt 4.6, Leading zero omitted, Abs format (unit mm)*
G04 Created by KiCad (PCBNEW 8.0.8) date 2025-02-16 12:10:03*
%MOMM*%
%LPD*%
G01*
G04 APERTURE LIST*
G04 Aperture macros list*
%AMRoundRect*
0 Rectangle with rounded corners*
0 $1 Rounding radius*
0 $2 $3 $4 $5 $6 $7 $8 $9 X,Y pos of 4 corners*
0 Add a 4 corners polygon primitive as box body*
4,1,4,$2,$3,$4,$5,$6,$7,$8,$9,$2,$3,0*
0 Add four circle primitives for the rounded corners*
1,1,$1+$1,$2,$3*
1,1,$1+$1,$4,$5*
1,1,$1+$1,$6,$7*
1,1,$1+$1,$8,$9*
0 Add four rect primitives between the rounded corners*
20,1,$1+$1,$2,$3,$4,$5,0*
20,1,$1+$1,$4,$5,$6,$7,0*
20,1,$1+$1,$6,$7,$8,$9,0*
20,1,$1+$1,$8,$9,$2,$3,0*%
%AMFreePoly0*
4,1,53,0.180687,1.453641,0.352314,1.393587,0.506274,1.296847,0.634847,1.168274,0.731587,1.014314,0.791641,0.842687,0.812000,0.662000,0.791641,0.481313,0.731587,0.309686,0.634847,0.155726,0.506274,0.027153,0.352314,-0.069587,0.180687,-0.129641,0.000000,-0.150000,-0.180687,-0.129641,-0.352314,-0.069587,-0.506274,0.027153,-0.634847,0.155726,-0.731587,0.309686,-0.791641,0.481313,
-0.812000,0.662000,-0.517265,0.662000,-0.496312,0.516270,-0.435151,0.382345,-0.338737,0.271077,-0.214880,0.191479,-0.073614,0.150000,0.073614,0.150000,0.214880,0.191479,0.338737,0.271077,0.435151,0.382345,0.496312,0.516270,0.517265,0.662000,0.496312,0.807730,0.435151,0.941655,0.338737,1.052923,0.214880,1.132521,0.073614,1.174000,-0.073614,1.174000,-0.214880,1.132521,
-0.338737,1.052923,-0.435151,0.941655,-0.496312,0.807730,-0.517265,0.662000,-0.812000,0.662000,-0.791641,0.842687,-0.731587,1.014314,-0.634847,1.168274,-0.506274,1.296847,-0.352314,1.393587,-0.180687,1.453641,0.000000,1.474000,0.180687,1.453641,0.180687,1.453641,$1*%
G04 Aperture macros list end*
%TA.AperFunction,Conductor*%
%ADD10C,0.200000*%
%TD*%
%TA.AperFunction,SMDPad,CuDef*%
%ADD11RoundRect,0.152400X1.063600X0.609600X-1.063600X0.609600X-1.063600X-0.609600X1.063600X-0.609600X0*%
%TD*%
%TA.AperFunction,ComponentPad*%
%ADD12C,1.524000*%
%TD*%
%TA.AperFunction,SMDPad,CuDef*%
%ADD13RoundRect,0.152400X-1.063600X-0.609600X1.063600X-0.609600X1.063600X0.609600X-1.063600X0.609600X0*%
%TD*%
%TA.AperFunction,ComponentPad*%
%ADD14R,1.700000X1.700000*%
%TD*%
%TA.AperFunction,ComponentPad*%
%ADD15O,1.700000X1.700000*%
%TD*%
%TA.AperFunction,SMDPad,CuDef*%
%ADD16R,2.000000X1.100000*%
%TD*%
%TA.AperFunction,SMDPad,CuDef*%
%ADD17RoundRect,0.237500X0.250000X0.237500X-0.250000X0.237500X-0.250000X-0.237500X0.250000X-0.237500X0*%
%TD*%
%TA.AperFunction,SMDPad,CuDef*%
%ADD18RoundRect,0.237500X-0.250000X-0.237500X0.250000X-0.237500X0.250000X0.237500X-0.250000X0.237500X0*%
%TD*%
%TA.AperFunction,SMDPad,CuDef*%
%ADD19RoundRect,0.130500X0.130500X-0.169500X0.130500X0.169500X-0.130500X0.169500X-0.130500X-0.169500X0*%
%TD*%
%TA.AperFunction,SMDPad,CuDef*%
%ADD20FreePoly0,180.000000*%
%TD*%
%TA.AperFunction,ComponentPad*%
%ADD21RoundRect,0.250000X0.750000X0.400000X-0.750000X0.400000X-0.750000X-0.400000X0.750000X-0.400000X0*%
%TD*%
%TA.AperFunction,ComponentPad*%
%ADD22O,2.000000X1.300000*%
%TD*%
%TA.AperFunction,ViaPad*%
%ADD23C,0.600000*%
%TD*%
G04 APERTURE END LIST*
D10*
%TO.N,Net-(BT1-+)*%
X118000000Y-74500000D02*
X115500000Y-74500000D01*
X122000000Y-67500000D02*
X118000000Y-74500000D01*
%TO.N,Net-(SW1-A)*%
X113000000Y-71500000D02*
X112500000Y-70000000D01*
X114500000Y-71500000D02*
X113000000Y-71500000D01*
%TO.N,Net-(MK1-DATA)*%
X87500000Y-91500000D02*
X87000000Y-91500000D01*
%TO.N,Net-(MK1-BCLK)*%
X87000000Y-88500000D02*
X88000000Y-88500000D01*
%TO.N,Net-(MK1-WS)*%
X87500000Y-86000000D02*
X87000000Y-86000000D01*
%TO.N,Net-(MK1-VDD)*%
X106000000Y-81000000D02*
X107000000Y-81000000D01*
%TO.N,Net-(BT1-+)*%
X134500000Y-95000000D02*
X134250000Y-95000000D01*
X134000000Y-95000000D02*
X134500000Y-95000000D01*
X134000000Y-98500000D02*
X134000000Y-95000000D01*
X133000000Y-100000000D02*
X134000000Y-98500000D01*
X131500000Y-100000000D02*
X133000000Y-100000000D01*
X138000000Y-77000000D02*
X137500000Y-80000000D01*
X137500000Y-76000000D02*
X138000000Y-77000000D01*
X136500000Y-76000000D02*
X137500000Y-76000000D01*
X136000000Y-82500000D02*
X137500000Y-80000000D01*
%TO.N,Net-(D1-CI)*%
X121500000Y-93500000D02*
X129000000Y-93500000D01*
X109500000Y-88500000D02*
X121500000Y-93500000D01*
X106000000Y-88500000D02*
X109500000Y-88500000D01*
%TO.N,Net-(BT1-+)*%
X130000000Y-77000000D02*
X130500000Y-77500000D01*
%TO.N,Net-(D1-DI)*%
X109000000Y-83500000D02*
X106000000Y-83500000D01*
X126000000Y-91500000D02*
X109000000Y-83500000D01*
X126000000Y-91500000D02*
X128500000Y-91500000D01*
%TO.N,GND*%
X124000000Y-80500000D02*
X120000000Y-82500000D01*
X117500000Y-104500000D02*
X115500000Y-106500000D01*
X127000000Y-75000000D02*
X129000000Y-75000000D01*
X124000000Y-80500000D02*
X127000000Y-75000000D01*
X126000000Y-74500000D02*
X128500000Y-74500000D01*
X123500000Y-77000000D02*
X126000000Y-74500000D01*
%TO.N,Net-(MK1-WS)*%
X138500000Y-68500000D02*
X136000000Y-66000000D01*
%TO.N,Net-(MK1-VDD)*%
X107000000Y-106000000D02*
X107000000Y-102500000D01*
%TO.N,GND*%
X108500000Y-78500000D02*
X119500000Y-78500000D01*
%TO.N,Net-(BT1-+)*%
X135000000Y-77500000D02*
X136500000Y-76000000D01*
%TO.N,Net-(MK1-BCLK)*%
X108000000Y-99500000D02*
X108000000Y-106000000D01*
%TO.N,Net-(BT1-+)*%
X135000000Y-77500000D02*
X130500000Y-77500000D01*
%TO.N,GND*%
X111500000Y-109500000D02*
X112500000Y-108500000D01*
X112500000Y-108500000D02*
X112500000Y-107500000D01*
%TO.N,Net-(SW1-A)*%
X107500000Y-76000000D02*
X106500000Y-76000000D01*
%TO.N,Net-(MK1-BCLK)*%
X83000000Y-92000000D02*
X87000000Y-88500000D01*
%TO.N,Net-(BT1-+)*%
X134500000Y-67500000D02*
X136500000Y-69500000D01*
%TO.N,GND*%
X119500000Y-78500000D02*
X123500000Y-77000000D01*
%TO.N,Net-(SW1-A)*%
X110000000Y-68000000D02*
X107500000Y-76000000D01*
%TO.N,GND*%
X109000000Y-112000000D02*
X107000000Y-112000000D01*
%TO.N,Net-(BT1-+)*%
X122000000Y-67500000D02*
X134500000Y-67500000D01*
%TO.N,Net-(MK1-DATA)*%
X85500000Y-93000000D02*
X87000000Y-91500000D01*
%TO.N,Net-(MK1-VDD)*%
X112500000Y-83500000D02*
X111500000Y-81000000D01*
%TO.N,GND*%
X108500000Y-78500000D02*
X105500000Y-78500000D01*
%TO.N,Net-(MK1-WS)*%
X105000000Y-108000000D02*
X107000000Y-108000000D01*
%TO.N,Net-(MK1-DATA)*%
X102500000Y-112000000D02*
X101500000Y-107000000D01*
%TO.N,Net-(MK1-WS)*%
X84500000Y-69000000D02*
X86500000Y-66000000D01*
X136000000Y-66000000D02*
X86500000Y-66000000D01*
%TO.N,GND*%
X109000000Y-110500000D02*
X108000000Y-111500000D01*
%TO.N,Net-(MK1-DATA)*%
X85500000Y-99500000D02*
X85500000Y-93000000D01*
X86500000Y-107000000D02*
X107000000Y-107000000D01*
%TO.N,GND*%
X108000000Y-108000000D02*
X109000000Y-109000000D01*
%TO.N,Net-(SW1-A)*%
X112500000Y-70000000D02*
X111500000Y-68000000D01*
%TO.N,GND*%
X108000000Y-111500000D02*
X107000000Y-112000000D01*
X112500000Y-107500000D02*
X112000000Y-107000000D01*
%TO.N,Net-(MK1-DATA)*%
X85500000Y-99500000D02*
X85500000Y-104500000D01*
%TO.N,GND*%
X111500000Y-109500000D02*
X109000000Y-112000000D01*
%TO.N,Net-(MK1-DATA)*%
X102500000Y-112000000D02*
X105000000Y-112000000D01*
%TO.N,Net-(MK1-VDD)*%
X107000000Y-81000000D02*
X111500000Y-81000000D01*
%TO.N,Net-(MK1-WS)*%
X135000000Y-110500000D02*
X138500000Y-107500000D01*
%TO.N,GND*%
X109000000Y-109000000D02*
X109000000Y-110500000D01*
%TO.N,Net-(MK1-DATA)*%
X86500000Y-107000000D02*
X85500000Y-104500000D01*
%TO.N,Net-(MK1-WS)*%
X84500000Y-83500000D02*
X87000000Y-86000000D01*
%TO.N,GND*%
X109500000Y-106500000D02*
X115500000Y-106500000D01*
%TO.N,Net-(MK1-BCLK)*%
X108000000Y-99500000D02*
X106000000Y-98500000D01*
%TO.N,Net-(SW1-A)*%
X111500000Y-68000000D02*
X110000000Y-68000000D01*
%TO.N,Net-(MK1-WS)*%
X84500000Y-69000000D02*
X84500000Y-83500000D01*
%TO.N,GND*%
X112000000Y-107000000D02*
X110000000Y-107000000D01*
%TO.N,Net-(BT1-+)*%
X136500000Y-69500000D02*
X136500000Y-76000000D01*
%TO.N,Net-(MK1-WS)*%
X138500000Y-107500000D02*
X138500000Y-68500000D01*
%TD*%
D11*
%TO.P,U1,1,GPIO1/D0/A0*%
%TO.N,unconnected-(U1-GPIO1{slash}D0{slash}A0-Pad1)*%
X88425000Y-75960000D03*
D12*
%TO.N,unconnected-(U1-GPIO1{slash}D0{slash}A0-Pad1)_1*%
X89260000Y-75960000D03*
D11*
%TO.P,U1,2,GPIO2/DA/A1*%
%TO.N,unconnected-(U1-GPIO2{slash}DA{slash}A1-Pad2)*%
X88425000Y-78500000D03*
D12*
%TO.N,unconnected-(U1-GPIO2{slash}DA{slash}A1-Pad2)_1*%
X89260000Y-78500000D03*
D11*
%TO.P,U1,3,GPIO3/D2/A2*%
%TO.N,unconnected-(U1-GPIO3{slash}D2{slash}A2-Pad3)_1*%
X88425000Y-81040000D03*
D12*
%TO.N,unconnected-(U1-GPIO3{slash}D2{slash}A2-Pad3)*%
X89260000Y-81040000D03*
D11*
%TO.P,U1,4,GPIO4/D3/A3*%
%TO.N,unconnected-(U1-GPIO4{slash}D3{slash}A3-Pad4)_1*%
X88425000Y-83580000D03*
D12*
%TO.N,unconnected-(U1-GPIO4{slash}D3{slash}A3-Pad4)*%
X89260000Y-83580000D03*
D11*
%TO.P,U1,5,GPIO5/D4/I2C_SDA*%
%TO.N,Net-(MK1-WS)*%
X88425000Y-86120000D03*
D12*
X89260000Y-86120000D03*
D11*
%TO.P,U1,6,GPIO9/D5/I2C_SCL*%
%TO.N,Net-(MK1-BCLK)*%
X88425000Y-88660000D03*
D12*
X89260000Y-88660000D03*
D11*
%TO.P,U1,7,U0TXD/D6/TX*%
%TO.N,Net-(MK1-DATA)*%
X88425000Y-91200000D03*
D12*
X89260000Y-91200000D03*
%TO.P,U1,8,U0RXD/D7/RX*%
%TO.N,unconnected-(U1-U0RXD{slash}D7{slash}RX-Pad8)_1*%
X104500000Y-91200000D03*
D13*
%TO.N,unconnected-(U1-U0RXD{slash}D7{slash}RX-Pad8)*%
X105335000Y-91200000D03*
D12*
%TO.P,U1,9,GPIO7/D8/A8/SCK*%
%TO.N,Net-(D1-CI)*%
X104500000Y-88660000D03*
D13*
X105335000Y-88660000D03*
D12*
%TO.P,U1,10,GPIO8/D9/A9/MISO*%
%TO.N,unconnected-(U1-GPIO8{slash}D9{slash}A9{slash}MISO-Pad10)_1*%
X104500000Y-86120000D03*
D13*
%TO.N,unconnected-(U1-GPIO8{slash}D9{slash}A9{slash}MISO-Pad10)*%
X105335000Y-86120000D03*
D12*
%TO.P,U1,11,GPIO9/D10/A10/MOSI*%
%TO.N,Net-(D1-DI)*%
X104500000Y-83580000D03*
D13*
X105335000Y-83580000D03*
D12*
%TO.P,U1,12,VCC_3V3*%
%TO.N,Net-(MK1-VDD)*%
X104500000Y-81040000D03*
D13*
X105335000Y-81040000D03*
D12*
%TO.P,U1,13,GND*%
%TO.N,GND*%
X104500000Y-78500000D03*
D13*
X105335000Y-78500000D03*
D12*
%TO.P,U1,14,VBUS*%
%TO.N,Net-(SW1-A)*%
X104500000Y-75960000D03*
D13*
X105335000Y-75960000D03*
%TD*%
D14*
%TO.P,SW1,1,A*%
%TO.N,Net-(SW1-A)*%
X115000000Y-72000000D03*
D15*
%TO.P,SW1,2,B*%
%TO.N,Net-(BT1-+)*%
X115000000Y-74540000D03*
%TO.P,SW1,3,C*%
%TO.N,unconnected-(SW1-C-Pad3)*%
X115000000Y-77080000D03*
%TD*%
D16*
%TO.P,D1,1,DI*%
%TO.N,Net-(D1-DI)*%
X129200000Y-91600000D03*
%TO.P,D1,2,CI*%
%TO.N,Net-(D1-CI)*%
X129200000Y-93300000D03*
%TO.P,D1,3,GND*%
%TO.N,GND*%
X129200000Y-95000000D03*
%TO.P,D1,4,VCC*%
%TO.N,Net-(BT1-+)*%
X134000000Y-95000000D03*
%TO.P,D1,5,CO*%
%TO.N,unconnected-(D1-CO-Pad5)*%
X134000000Y-93300000D03*
%TO.P,D1,6,DO*%
%TO.N,unconnected-(D1-DO-Pad6)*%
X134000000Y-91600000D03*
%TD*%
D17*
%TO.P,C1,1*%
%TO.N,Net-(BT1-+)*%
X131500000Y-100000000D03*
%TO.P,C1,2*%
%TO.N,GND*%
X129675000Y-100000000D03*
%TD*%
D18*
%TO.P,R1,1*%
%TO.N,Net-(MK1-DATA)*%
X105087500Y-112000000D03*
%TO.P,R1,2*%
%TO.N,GND*%
X106912500Y-112000000D03*
%TD*%
D19*
%TO.P,MK1,1,WS*%
%TO.N,Net-(MK1-WS)*%
X107094000Y-107800000D03*
%TO.P,MK1,2,SEL*%
%TO.N,GND*%
X107916000Y-107800000D03*
D20*
%TO.P,MK1,3,GND*%
X109168000Y-106238000D03*
D19*
%TO.P,MK1,4,BCLK*%
%TO.N,Net-(MK1-BCLK)*%
X107916000Y-106000000D03*
%TO.P,MK1,5,VDD*%
%TO.N,Net-(MK1-VDD)*%
X107094000Y-106000000D03*
%TO.P,MK1,6,DATA*%
%TO.N,Net-(MK1-DATA)*%
X107094000Y-106900000D03*
%TD*%
D21*
%TO.P,BT1,1,+*%
%TO.N,Net-(BT1-+)*%
X129500000Y-76500000D03*
D22*
%TO.P,BT1,2,-*%
%TO.N,GND*%
X129500000Y-74500000D03*
%TD*%
D23*
%TO.N,GND*%
X120000000Y-82500000D03*
X117500000Y-104500000D03*
%TO.N,Net-(MK1-VDD)*%
X107000000Y-102500000D03*
X112500000Y-83500000D03*
%TO.N,Net-(MK1-WS)*%
X105000000Y-108000000D03*
X135000000Y-110500000D03*
%TO.N,Net-(MK1-BCLK)*%
X83000000Y-92000000D03*
X106000000Y-98500000D03*
%TD*%
D10*
%TO.N,Net-(BT1-+)*%
X135500000Y-95000000D02*
X136000000Y-94500000D01*
X136000000Y-94500000D02*
X136000000Y-82500000D01*
X134000000Y-95000000D02*
X135500000Y-95000000D01*
%TO.N,GND*%
X127500000Y-104500000D02*
X129675000Y-102325000D01*
X129675000Y-102325000D02*
X129675000Y-100000000D01*
X117500000Y-104500000D02*
X127500000Y-104500000D01*
X128500000Y-98825000D02*
X128500000Y-95500000D01*
X129675000Y-100000000D02*
X128500000Y-98825000D01*
X128687500Y-95512500D02*
X129200000Y-95000000D01*
%TD*%
M02*
