%TF.GenerationSoftware,KiCad,Pcbnew,8.0.8*%
%TF.CreationDate,2025-02-16T12:10:03-08:00*%
%TF.ProjectId,514_pcb,3531345f-7063-4622-9e6b-696361645f70,rev?*%
%TF.SameCoordinates,Original*%
%TF.FileFunction,Soldermask,Top*%
%TF.FilePolarity,Negative*%
%FSLAX46Y46*%
G04 Gerber Fmt 4.6, Leading zero omitted, Abs format (unit mm)*
G04 Created by KiCad (PCBNEW 8.0.8) date 2025-02-16 12:10:03*
%MOMM*%
%LPD*%
G01*
G04 APERTURE LIST*
G04 Aperture macros list*
%AMRoundRect*
0 Rectangle with rounded corners*
0 $1 Rounding radius*
0 $2 $3 $4 $5 $6 $7 $8 $9 X,Y pos of 4 corners*
0 Add a 4 corners polygon primitive as box body*
4,1,4,$2,$3,$4,$5,$6,$7,$8,$9,$2,$3,0*
0 Add four circle primitives for the rounded corners*
1,1,$1+$1,$2,$3*
1,1,$1+$1,$4,$5*
1,1,$1+$1,$6,$7*
1,1,$1+$1,$8,$9*
0 Add four rect primitives between the rounded corners*
20,1,$1+$1,$2,$3,$4,$5,0*
20,1,$1+$1,$4,$5,$6,$7,0*
20,1,$1+$1,$6,$7,$8,$9,0*
20,1,$1+$1,$8,$9,$2,$3,0*%
%AMFreePoly0*
4,1,53,0.180687,1.453641,0.352314,1.393587,0.506274,1.296847,0.634847,1.168274,0.731587,1.014314,0.791641,0.842687,0.812000,0.662000,0.791641,0.481313,0.731587,0.309686,0.634847,0.155726,0.506274,0.027153,0.352314,-0.069587,0.180687,-0.129641,0.000000,-0.150000,-0.180687,-0.129641,-0.352314,-0.069587,-0.506274,0.027153,-0.634847,0.155726,-0.731587,0.309686,-0.791641,0.481313,
-0.812000,0.662000,-0.517265,0.662000,-0.496312,0.516270,-0.435151,0.382345,-0.338737,0.271077,-0.214880,0.191479,-0.073614,0.150000,0.073614,0.150000,0.214880,0.191479,0.338737,0.271077,0.435151,0.382345,0.496312,0.516270,0.517265,0.662000,0.496312,0.807730,0.435151,0.941655,0.338737,1.052923,0.214880,1.132521,0.073614,1.174000,-0.073614,1.174000,-0.214880,1.132521,
-0.338737,1.052923,-0.435151,0.941655,-0.496312,0.807730,-0.517265,0.662000,-0.812000,0.662000,-0.791641,0.842687,-0.731587,1.014314,-0.634847,1.168274,-0.506274,1.296847,-0.352314,1.393587,-0.180687,1.453641,0.000000,1.474000,0.180687,1.453641,0.180687,1.453641,$1*%
G04 Aperture macros list end*
%ADD10RoundRect,0.152400X1.063600X0.609600X-1.063600X0.609600X-1.063600X-0.609600X1.063600X-0.609600X0*%
%ADD11C,1.524000*%
%ADD12RoundRect,0.152400X-1.063600X-0.609600X1.063600X-0.609600X1.063600X0.609600X-1.063600X0.609600X0*%
%ADD13R,1.700000X1.700000*%
%ADD14O,1.700000X1.700000*%
%ADD15R,2.000000X1.100000*%
%ADD16RoundRect,0.237500X0.250000X0.237500X-0.250000X0.237500X-0.250000X-0.237500X0.250000X-0.237500X0*%
%ADD17RoundRect,0.237500X-0.250000X-0.237500X0.250000X-0.237500X0.250000X0.237500X-0.250000X0.237500X0*%
%ADD18C,0.500000*%
%ADD19RoundRect,0.130500X0.130500X-0.169500X0.130500X0.169500X-0.130500X0.169500X-0.130500X-0.169500X0*%
%ADD20FreePoly0,180.000000*%
%ADD21C,1.150000*%
%ADD22RoundRect,0.250000X0.750000X0.400000X-0.750000X0.400000X-0.750000X-0.400000X0.750000X-0.400000X0*%
%ADD23O,2.000000X1.300000*%
G04 APERTURE END LIST*
D10*
%TO.C,U1*%
X88425000Y-75960000D03*
D11*
X89260000Y-75960000D03*
D10*
X88425000Y-78500000D03*
D11*
X89260000Y-78500000D03*
D10*
X88425000Y-81040000D03*
D11*
X89260000Y-81040000D03*
D10*
X88425000Y-83580000D03*
D11*
X89260000Y-83580000D03*
D10*
X88425000Y-86120000D03*
D11*
X89260000Y-86120000D03*
D10*
X88425000Y-88660000D03*
D11*
X89260000Y-88660000D03*
D10*
X88425000Y-91200000D03*
D11*
X89260000Y-91200000D03*
X104500000Y-91200000D03*
D12*
X105335000Y-91200000D03*
D11*
X104500000Y-88660000D03*
D12*
X105335000Y-88660000D03*
D11*
X104500000Y-86120000D03*
D12*
X105335000Y-86120000D03*
D11*
X104500000Y-83580000D03*
D12*
X105335000Y-83580000D03*
D11*
X104500000Y-81040000D03*
D12*
X105335000Y-81040000D03*
D11*
X104500000Y-78500000D03*
D12*
X105335000Y-78500000D03*
D11*
X104500000Y-75960000D03*
D12*
X105335000Y-75960000D03*
%TD*%
D13*
%TO.C,SW1*%
X115000000Y-72000000D03*
D14*
X115000000Y-74540000D03*
X115000000Y-77080000D03*
%TD*%
D15*
%TO.C,D1*%
X129200000Y-91600000D03*
X129200000Y-93300000D03*
X129200000Y-95000000D03*
X134000000Y-95000000D03*
X134000000Y-93300000D03*
X134000000Y-91600000D03*
%TD*%
D16*
%TO.C,C1*%
X131500000Y-100000000D03*
X129675000Y-100000000D03*
%TD*%
D17*
%TO.C,R1*%
X105087500Y-112000000D03*
X106912500Y-112000000D03*
%TD*%
D18*
%TO.C,MK1*%
X109168000Y-106900000D03*
D19*
X107094000Y-107800000D03*
X107916000Y-107800000D03*
D20*
X109168000Y-106238000D03*
D19*
X107916000Y-106000000D03*
X107094000Y-106000000D03*
X107094000Y-106900000D03*
%TD*%
D21*
%TO.C,BT1*%
X131000000Y-72450000D03*
D22*
X129500000Y-76500000D03*
D23*
X129500000Y-74500000D03*
%TD*%
M02*
