%TF.GenerationSoftware,KiCad,Pcbnew,8.0.8*%
%TF.CreationDate,2025-03-02T18:57:06-08:00*%
%TF.ProjectId,514_display,3531345f-6469-4737-906c-61792e6b6963,rev?*%
%TF.SameCoordinates,Original*%
%TF.FileFunction,Soldermask,Top*%
%TF.FilePolarity,Negative*%
%FSLAX46Y46*%
G04 Gerber Fmt 4.6, Leading zero omitted, Abs format (unit mm)*
G04 Created by KiCad (PCBNEW 8.0.8) date 2025-03-02 18:57:06*
%MOMM*%
%LPD*%
G01*
G04 APERTURE LIST*
G04 Aperture macros list*
%AMRoundRect*
0 Rectangle with rounded corners*
0 $1 Rounding radius*
0 $2 $3 $4 $5 $6 $7 $8 $9 X,Y pos of 4 corners*
0 Add a 4 corners polygon primitive as box body*
4,1,4,$2,$3,$4,$5,$6,$7,$8,$9,$2,$3,0*
0 Add four circle primitives for the rounded corners*
1,1,$1+$1,$2,$3*
1,1,$1+$1,$4,$5*
1,1,$1+$1,$6,$7*
1,1,$1+$1,$8,$9*
0 Add four rect primitives between the rounded corners*
20,1,$1+$1,$2,$3,$4,$5,0*
20,1,$1+$1,$4,$5,$6,$7,0*
20,1,$1+$1,$6,$7,$8,$9,0*
20,1,$1+$1,$8,$9,$2,$3,0*%
G04 Aperture macros list end*
%ADD10O,3.200000X1.900000*%
%ADD11O,1.600000X2.000000*%
%ADD12C,1.524000*%
%ADD13R,1.700000X1.700000*%
%ADD14O,1.700000X1.700000*%
%ADD15RoundRect,0.250000X-0.350000X-0.450000X0.350000X-0.450000X0.350000X0.450000X-0.350000X0.450000X0*%
%ADD16C,1.700000*%
%ADD17R,1.800000X1.800000*%
%ADD18C,1.800000*%
%ADD19C,1.150000*%
%ADD20RoundRect,0.250000X0.750000X0.400000X-0.750000X0.400000X-0.750000X-0.400000X0.750000X-0.400000X0*%
%ADD21O,2.000000X1.300000*%
G04 APERTURE END LIST*
D10*
%TO.C,SW3*%
X43750000Y-116000000D03*
X56250000Y-116000000D03*
X43750000Y-121000000D03*
X56250000Y-121000000D03*
%TD*%
D11*
%TO.C,Brd3*%
X106620000Y-74880000D03*
X104080000Y-74880000D03*
X99000000Y-74880000D03*
X101540000Y-74880000D03*
%TD*%
%TO.C,Brd2*%
X91455000Y-109380000D03*
X88915000Y-109380000D03*
X83835000Y-109380000D03*
X86375000Y-109380000D03*
%TD*%
%TO.C,Brd1*%
X73920000Y-74880000D03*
X71380000Y-74880000D03*
X76460000Y-74880000D03*
X79000000Y-74880000D03*
%TD*%
D12*
%TO.C,U1*%
X85000000Y-64075000D03*
X82460000Y-64075000D03*
X79920000Y-64075000D03*
X77380000Y-64075000D03*
X74840000Y-64075000D03*
X72300000Y-64075000D03*
X69760000Y-64075000D03*
X69760000Y-48835000D03*
X72300000Y-48835000D03*
X74840000Y-48835000D03*
X77380000Y-48835000D03*
X79920000Y-48835000D03*
X82460000Y-48835000D03*
X85000000Y-48835000D03*
%TD*%
D13*
%TO.C,SW2*%
X102540000Y-44500000D03*
D14*
X100000000Y-44500000D03*
X97460000Y-44500000D03*
%TD*%
D15*
%TO.C,R3*%
X46500000Y-67000000D03*
X48500000Y-67000000D03*
%TD*%
%TO.C,R2*%
X136500000Y-88000000D03*
X138500000Y-88000000D03*
%TD*%
%TO.C,R1*%
X131500000Y-70000000D03*
X133500000Y-70000000D03*
%TD*%
D16*
%TO.C,M1*%
X92620000Y-174360000D03*
X85000000Y-174360000D03*
X92620000Y-151500000D03*
X85000000Y-151500000D03*
%TD*%
D17*
%TO.C,D2*%
X128000000Y-94500000D03*
D18*
X130540000Y-94500000D03*
%TD*%
D17*
%TO.C,D1*%
X128000000Y-81000000D03*
D18*
X130540000Y-81000000D03*
%TD*%
D19*
%TO.C,BT1*%
X100300000Y-60050000D03*
D20*
X98800000Y-56000000D03*
D21*
X98800000Y-58000000D03*
%TD*%
M02*
