%TF.GenerationSoftware,KiCad,Pcbnew,8.0.8*%
%TF.CreationDate,2025-03-02T18:57:06-08:00*%
%TF.ProjectId,514_display,3531345f-6469-4737-906c-61792e6b6963,rev?*%
%TF.SameCoordinates,Original*%
%TF.FileFunction,Copper,L1,Top*%
%TF.FilePolarity,Positive*%
%FSLAX46Y46*%
G04 Gerber Fmt 4.6, Leading zero omitted, Abs format (unit mm)*
G04 Created by KiCad (PCBNEW 8.0.8) date 2025-03-02 18:57:06*
%MOMM*%
%LPD*%
G01*
G04 APERTURE LIST*
G04 Aperture macros list*
%AMRoundRect*
0 Rectangle with rounded corners*
0 $1 Rounding radius*
0 $2 $3 $4 $5 $6 $7 $8 $9 X,Y pos of 4 corners*
0 Add a 4 corners polygon primitive as box body*
4,1,4,$2,$3,$4,$5,$6,$7,$8,$9,$2,$3,0*
0 Add four circle primitives for the rounded corners*
1,1,$1+$1,$2,$3*
1,1,$1+$1,$4,$5*
1,1,$1+$1,$6,$7*
1,1,$1+$1,$8,$9*
0 Add four rect primitives between the rounded corners*
20,1,$1+$1,$2,$3,$4,$5,0*
20,1,$1+$1,$4,$5,$6,$7,0*
20,1,$1+$1,$6,$7,$8,$9,0*
20,1,$1+$1,$8,$9,$2,$3,0*%
G04 Aperture macros list end*
%ADD10C,0.300000*%
%TA.AperFunction,NonConductor*%
%ADD11C,0.300000*%
%TD*%
%TA.AperFunction,ComponentPad*%
%ADD12O,3.200000X1.900000*%
%TD*%
%TA.AperFunction,ComponentPad*%
%ADD13O,1.600000X2.000000*%
%TD*%
%TA.AperFunction,ComponentPad*%
%ADD14C,1.524000*%
%TD*%
%TA.AperFunction,ComponentPad*%
%ADD15R,1.700000X1.700000*%
%TD*%
%TA.AperFunction,ComponentPad*%
%ADD16O,1.700000X1.700000*%
%TD*%
%TA.AperFunction,SMDPad,CuDef*%
%ADD17RoundRect,0.250000X-0.350000X-0.450000X0.350000X-0.450000X0.350000X0.450000X-0.350000X0.450000X0*%
%TD*%
%TA.AperFunction,ComponentPad*%
%ADD18C,1.700000*%
%TD*%
%TA.AperFunction,ComponentPad*%
%ADD19R,1.800000X1.800000*%
%TD*%
%TA.AperFunction,ComponentPad*%
%ADD20C,1.800000*%
%TD*%
%TA.AperFunction,ComponentPad*%
%ADD21RoundRect,0.250000X0.750000X0.400000X-0.750000X0.400000X-0.750000X-0.400000X0.750000X-0.400000X0*%
%TD*%
%TA.AperFunction,ComponentPad*%
%ADD22O,2.000000X1.300000*%
%TD*%
%TA.AperFunction,ViaPad*%
%ADD23C,0.600000*%
%TD*%
%TA.AperFunction,Conductor*%
%ADD24C,0.200000*%
%TD*%
G04 APERTURE END LIST*
D10*
D11*
X121054510Y-134300828D02*
X121054510Y-132800828D01*
X121054510Y-132800828D02*
X121411653Y-132800828D01*
X121411653Y-132800828D02*
X121625939Y-132872257D01*
X121625939Y-132872257D02*
X121768796Y-133015114D01*
X121768796Y-133015114D02*
X121840225Y-133157971D01*
X121840225Y-133157971D02*
X121911653Y-133443685D01*
X121911653Y-133443685D02*
X121911653Y-133657971D01*
X121911653Y-133657971D02*
X121840225Y-133943685D01*
X121840225Y-133943685D02*
X121768796Y-134086542D01*
X121768796Y-134086542D02*
X121625939Y-134229400D01*
X121625939Y-134229400D02*
X121411653Y-134300828D01*
X121411653Y-134300828D02*
X121054510Y-134300828D01*
X122554510Y-134300828D02*
X122554510Y-133300828D01*
X122554510Y-132800828D02*
X122483082Y-132872257D01*
X122483082Y-132872257D02*
X122554510Y-132943685D01*
X122554510Y-132943685D02*
X122625939Y-132872257D01*
X122625939Y-132872257D02*
X122554510Y-132800828D01*
X122554510Y-132800828D02*
X122554510Y-132943685D01*
X123125939Y-133300828D02*
X123483082Y-134300828D01*
X123840225Y-133300828D02*
X123483082Y-134300828D01*
X123483082Y-134300828D02*
X123340225Y-134657971D01*
X123340225Y-134657971D02*
X123268796Y-134729400D01*
X123268796Y-134729400D02*
X123125939Y-134800828D01*
X125054511Y-133300828D02*
X125054511Y-134300828D01*
X124411653Y-133300828D02*
X124411653Y-134086542D01*
X124411653Y-134086542D02*
X124483082Y-134229400D01*
X124483082Y-134229400D02*
X124625939Y-134300828D01*
X124625939Y-134300828D02*
X124840225Y-134300828D01*
X124840225Y-134300828D02*
X124983082Y-134229400D01*
X124983082Y-134229400D02*
X125054511Y-134157971D01*
X125768796Y-133300828D02*
X125768796Y-134300828D01*
X125768796Y-133443685D02*
X125840225Y-133372257D01*
X125840225Y-133372257D02*
X125983082Y-133300828D01*
X125983082Y-133300828D02*
X126197368Y-133300828D01*
X126197368Y-133300828D02*
X126340225Y-133372257D01*
X126340225Y-133372257D02*
X126411654Y-133515114D01*
X126411654Y-133515114D02*
X126411654Y-134300828D01*
X128983082Y-134300828D02*
X128268796Y-134300828D01*
X128268796Y-134300828D02*
X128268796Y-132800828D01*
X130125940Y-133300828D02*
X130125940Y-134300828D01*
X129483082Y-133300828D02*
X129483082Y-134086542D01*
X129483082Y-134086542D02*
X129554511Y-134229400D01*
X129554511Y-134229400D02*
X129697368Y-134300828D01*
X129697368Y-134300828D02*
X129911654Y-134300828D01*
X129911654Y-134300828D02*
X130054511Y-134229400D01*
X130054511Y-134229400D02*
X130125940Y-134157971D01*
X131983082Y-134300828D02*
X131983082Y-132800828D01*
X131983082Y-132800828D02*
X132340225Y-132800828D01*
X132340225Y-132800828D02*
X132554511Y-132872257D01*
X132554511Y-132872257D02*
X132697368Y-133015114D01*
X132697368Y-133015114D02*
X132768797Y-133157971D01*
X132768797Y-133157971D02*
X132840225Y-133443685D01*
X132840225Y-133443685D02*
X132840225Y-133657971D01*
X132840225Y-133657971D02*
X132768797Y-133943685D01*
X132768797Y-133943685D02*
X132697368Y-134086542D01*
X132697368Y-134086542D02*
X132554511Y-134229400D01*
X132554511Y-134229400D02*
X132340225Y-134300828D01*
X132340225Y-134300828D02*
X131983082Y-134300828D01*
X133483082Y-134300828D02*
X133483082Y-133300828D01*
X133483082Y-132800828D02*
X133411654Y-132872257D01*
X133411654Y-132872257D02*
X133483082Y-132943685D01*
X133483082Y-132943685D02*
X133554511Y-132872257D01*
X133554511Y-132872257D02*
X133483082Y-132800828D01*
X133483082Y-132800828D02*
X133483082Y-132943685D01*
X134125940Y-134229400D02*
X134268797Y-134300828D01*
X134268797Y-134300828D02*
X134554511Y-134300828D01*
X134554511Y-134300828D02*
X134697368Y-134229400D01*
X134697368Y-134229400D02*
X134768797Y-134086542D01*
X134768797Y-134086542D02*
X134768797Y-134015114D01*
X134768797Y-134015114D02*
X134697368Y-133872257D01*
X134697368Y-133872257D02*
X134554511Y-133800828D01*
X134554511Y-133800828D02*
X134340226Y-133800828D01*
X134340226Y-133800828D02*
X134197368Y-133729400D01*
X134197368Y-133729400D02*
X134125940Y-133586542D01*
X134125940Y-133586542D02*
X134125940Y-133515114D01*
X134125940Y-133515114D02*
X134197368Y-133372257D01*
X134197368Y-133372257D02*
X134340226Y-133300828D01*
X134340226Y-133300828D02*
X134554511Y-133300828D01*
X134554511Y-133300828D02*
X134697368Y-133372257D01*
X135411654Y-133300828D02*
X135411654Y-134800828D01*
X135411654Y-133372257D02*
X135554512Y-133300828D01*
X135554512Y-133300828D02*
X135840226Y-133300828D01*
X135840226Y-133300828D02*
X135983083Y-133372257D01*
X135983083Y-133372257D02*
X136054512Y-133443685D01*
X136054512Y-133443685D02*
X136125940Y-133586542D01*
X136125940Y-133586542D02*
X136125940Y-134015114D01*
X136125940Y-134015114D02*
X136054512Y-134157971D01*
X136054512Y-134157971D02*
X135983083Y-134229400D01*
X135983083Y-134229400D02*
X135840226Y-134300828D01*
X135840226Y-134300828D02*
X135554512Y-134300828D01*
X135554512Y-134300828D02*
X135411654Y-134229400D01*
X136983083Y-134300828D02*
X136840226Y-134229400D01*
X136840226Y-134229400D02*
X136768797Y-134086542D01*
X136768797Y-134086542D02*
X136768797Y-132800828D01*
X138197369Y-134300828D02*
X138197369Y-133515114D01*
X138197369Y-133515114D02*
X138125940Y-133372257D01*
X138125940Y-133372257D02*
X137983083Y-133300828D01*
X137983083Y-133300828D02*
X137697369Y-133300828D01*
X137697369Y-133300828D02*
X137554511Y-133372257D01*
X138197369Y-134229400D02*
X138054511Y-134300828D01*
X138054511Y-134300828D02*
X137697369Y-134300828D01*
X137697369Y-134300828D02*
X137554511Y-134229400D01*
X137554511Y-134229400D02*
X137483083Y-134086542D01*
X137483083Y-134086542D02*
X137483083Y-133943685D01*
X137483083Y-133943685D02*
X137554511Y-133800828D01*
X137554511Y-133800828D02*
X137697369Y-133729400D01*
X137697369Y-133729400D02*
X138054511Y-133729400D01*
X138054511Y-133729400D02*
X138197369Y-133657971D01*
X138768797Y-133300828D02*
X139125940Y-134300828D01*
X139483083Y-133300828D02*
X139125940Y-134300828D01*
X139125940Y-134300828D02*
X138983083Y-134657971D01*
X138983083Y-134657971D02*
X138911654Y-134729400D01*
X138911654Y-134729400D02*
X138768797Y-134800828D01*
D12*
%TO.P,SW3,1,A*%
%TO.N,Net-(SW3-A)*%
X43750000Y-116000000D03*
X56250000Y-116000000D03*
%TO.P,SW3,2,B*%
%TO.N,Net-(Brd1-GND)*%
X43750000Y-121000000D03*
X56250000Y-121000000D03*
%TD*%
D13*
%TO.P,Brd3,4,SDA*%
%TO.N,Net-(Brd1-SDA)*%
X106620000Y-74880000D03*
%TO.P,Brd3,3,SCL*%
%TO.N,Net-(Brd1-SCL)*%
X104080000Y-74880000D03*
%TO.P,Brd3,1,GND*%
%TO.N,Net-(Brd1-GND)*%
X99000000Y-74880000D03*
%TO.P,Brd3,2,VCC*%
%TO.N,Net-(Brd1-VCC)*%
X101540000Y-74880000D03*
%TD*%
%TO.P,Brd2,4,SDA*%
%TO.N,Net-(Brd1-SDA)*%
X91455000Y-109380000D03*
%TO.P,Brd2,3,SCL*%
%TO.N,Net-(Brd1-SCL)*%
X88915000Y-109380000D03*
%TO.P,Brd2,1,GND*%
%TO.N,Net-(Brd1-GND)*%
X83835000Y-109380000D03*
%TO.P,Brd2,2,VCC*%
%TO.N,Net-(Brd1-VCC)*%
X86375000Y-109380000D03*
%TD*%
%TO.P,Brd1,2,VCC*%
%TO.N,Net-(Brd1-VCC)*%
X73920000Y-74880000D03*
%TO.P,Brd1,1,GND*%
%TO.N,Net-(Brd1-GND)*%
X71380000Y-74880000D03*
%TO.P,Brd1,3,SCL*%
%TO.N,Net-(Brd1-SCL)*%
X76460000Y-74880000D03*
%TO.P,Brd1,4,SDA*%
%TO.N,Net-(Brd1-SDA)*%
X79000000Y-74880000D03*
%TD*%
D14*
%TO.P,U1,1,GPIO1/D0/A0*%
%TO.N,Net-(U1-GPIO1{slash}D0{slash}A0)*%
X85000000Y-64075000D03*
%TO.P,U1,2,GPIO2/DA/A1*%
%TO.N,Net-(M1--)*%
X82460000Y-64075000D03*
%TO.P,U1,3,GPIO3/D2/A2*%
%TO.N,Net-(U1-GPIO3{slash}D2{slash}A2)*%
X79920000Y-64075000D03*
%TO.P,U1,4,GPIO4/D3/A3*%
%TO.N,Net-(U1-GPIO4{slash}D3{slash}A3)*%
X77380000Y-64075000D03*
%TO.P,U1,5,GPIO5/D4/I2C_SDA*%
%TO.N,Net-(Brd1-SDA)*%
X74840000Y-64075000D03*
%TO.P,U1,6,GPIO9/D5/I2C_SCL*%
%TO.N,Net-(Brd1-SCL)*%
X72300000Y-64075000D03*
%TO.P,U1,7,U0TXD/D6/TX*%
%TO.N,unconnected-(U1-U0TXD{slash}D6{slash}TX-Pad7)*%
X69760000Y-64075000D03*
%TO.P,U1,8,U0RXD/D7/RX*%
%TO.N,unconnected-(U1-U0RXD{slash}D7{slash}RX-Pad8)*%
X69760000Y-48835000D03*
%TO.P,U1,9,GPIO7/D8/A8/SCK*%
%TO.N,Net-(SW3-A)*%
X72300000Y-48835000D03*
%TO.P,U1,10,GPIO8/D9/A9/MISO*%
%TO.N,Net-(U1-GPIO8{slash}D9{slash}A9{slash}MISO)*%
X74840000Y-48835000D03*
%TO.P,U1,11,GPIO9/D10/A10/MOSI*%
%TO.N,Net-(U1-GPIO9{slash}D10{slash}A10{slash}MOSI)*%
X77380000Y-48835000D03*
%TO.P,U1,12,VCC_3V3*%
%TO.N,Net-(Brd1-VCC)*%
X79920000Y-48835000D03*
%TO.P,U1,13,GND*%
%TO.N,Net-(Brd1-GND)*%
X82460000Y-48835000D03*
%TO.P,U1,14,VBUS*%
%TO.N,Net-(BT1-+)*%
X85000000Y-48835000D03*
%TD*%
D15*
%TO.P,SW2,1,A*%
%TO.N,unconnected-(SW2-A-Pad1)*%
X102540000Y-44500000D03*
D16*
%TO.P,SW2,2,B*%
%TO.N,Net-(BT1--)*%
X100000000Y-44500000D03*
%TO.P,SW2,3,C*%
%TO.N,Net-(Brd1-GND)*%
X97460000Y-44500000D03*
%TD*%
D17*
%TO.P,R3,1*%
%TO.N,Net-(SW3-A)*%
X46500000Y-67000000D03*
%TO.P,R3,2*%
%TO.N,Net-(Brd1-VCC)*%
X48500000Y-67000000D03*
%TD*%
%TO.P,R2,1*%
%TO.N,Net-(D2-A)*%
X136500000Y-88000000D03*
%TO.P,R2,2*%
%TO.N,Net-(U1-GPIO9{slash}D10{slash}A10{slash}MOSI)*%
X138500000Y-88000000D03*
%TD*%
%TO.P,R1,1*%
%TO.N,Net-(D1-A)*%
X131500000Y-70000000D03*
%TO.P,R1,2*%
%TO.N,Net-(U1-GPIO8{slash}D9{slash}A9{slash}MISO)*%
X133500000Y-70000000D03*
%TD*%
D18*
%TO.P,M1,1*%
%TO.N,Net-(U1-GPIO1{slash}D0{slash}A0)*%
X92620000Y-174360000D03*
%TO.P,M1,2,-*%
%TO.N,Net-(M1--)*%
X85000000Y-174360000D03*
%TO.P,M1,3*%
%TO.N,Net-(U1-GPIO3{slash}D2{slash}A2)*%
X92620000Y-151500000D03*
%TO.P,M1,4*%
%TO.N,Net-(U1-GPIO4{slash}D3{slash}A3)*%
X85000000Y-151500000D03*
%TD*%
D19*
%TO.P,D2,1,K*%
%TO.N,Net-(Brd1-GND)*%
X128000000Y-94500000D03*
D20*
%TO.P,D2,2,A*%
%TO.N,Net-(D2-A)*%
X130540000Y-94500000D03*
%TD*%
D19*
%TO.P,D1,1,K*%
%TO.N,Net-(Brd1-GND)*%
X128000000Y-81000000D03*
D20*
%TO.P,D1,2,A*%
%TO.N,Net-(D1-A)*%
X130540000Y-81000000D03*
%TD*%
D21*
%TO.P,BT1,1,+*%
%TO.N,Net-(BT1-+)*%
X98800000Y-56000000D03*
D22*
%TO.P,BT1,2,-*%
%TO.N,Net-(BT1--)*%
X98800000Y-58000000D03*
%TD*%
D23*
%TO.N,Net-(Brd1-GND)*%
X71250000Y-109250000D03*
X61000000Y-121500000D03*
%TO.N,Net-(U1-GPIO4{slash}D3{slash}A3)*%
X69000000Y-103000000D03*
%TO.N,Net-(Brd1-SDA)*%
X75500000Y-67500000D03*
X75500000Y-70000000D03*
X81000000Y-73500000D03*
%TO.N,Net-(Brd1-SCL)*%
X104500000Y-77500000D03*
X97000000Y-76500000D03*
%TO.N,Net-(Brd1-SDA)*%
X108000000Y-78500000D03*
X103500000Y-96000000D03*
%TO.N,Net-(Brd1-VCC)*%
X87174265Y-105325735D03*
X104500000Y-80000000D03*
X102750000Y-71750000D03*
X95500000Y-71500000D03*
%TO.N,Net-(M1--)*%
X111500000Y-170250000D03*
%TO.N,Net-(Brd1-SCL)*%
X74500000Y-80500000D03*
%TO.N,Net-(Brd1-GND)*%
X79500000Y-70000000D03*
X67000000Y-71500000D03*
%TO.N,Net-(Brd1-VCC)*%
X77500000Y-52500000D03*
%TO.N,Net-(U1-GPIO1{slash}D0{slash}A0)*%
X97000000Y-78000000D03*
%TO.N,Net-(U1-GPIO3{slash}D2{slash}A2)*%
X94000000Y-81500000D03*
%TO.N,Net-(Brd1-GND)*%
X105500000Y-50500000D03*
%TO.N,Net-(U1-GPIO9{slash}D10{slash}A10{slash}MOSI)*%
X83500000Y-35500000D03*
%TO.N,Net-(U1-GPIO8{slash}D9{slash}A9{slash}MISO)*%
X78000000Y-39500000D03*
%TO.N,Net-(SW3-A)*%
X55000000Y-55000000D03*
%TD*%
D24*
%TO.N,Net-(M1--)*%
X88946271Y-174360000D02*
X85000000Y-174360000D01*
X90359106Y-175772835D02*
X88946271Y-174360000D01*
X111500000Y-170250000D02*
X111500000Y-172000000D01*
X111500000Y-172000000D02*
X107727165Y-175772835D01*
X107727165Y-175772835D02*
X90359106Y-175772835D01*
%TO.N,Net-(Brd1-GND)*%
X71380000Y-109380000D02*
X83835000Y-109380000D01*
X71250000Y-109250000D02*
X71380000Y-109380000D01*
X60000000Y-122500000D02*
X61000000Y-121500000D01*
X57750000Y-122500000D02*
X60000000Y-122500000D01*
X56250000Y-121000000D02*
X57750000Y-122500000D01*
%TO.N,Net-(SW3-A)*%
X46500000Y-113250000D02*
X43750000Y-116000000D01*
X46500000Y-67000000D02*
X46500000Y-113250000D01*
X46500000Y-67000000D02*
X46500000Y-63500000D01*
X46500000Y-63500000D02*
X55000000Y-55000000D01*
%TO.N,Net-(Brd1-VCC)*%
X66040000Y-67000000D02*
X73920000Y-74880000D01*
X48500000Y-67000000D02*
X66040000Y-67000000D01*
%TO.N,Net-(Brd1-GND)*%
X62500000Y-91000000D02*
X59000000Y-94500000D01*
X59000000Y-118250000D02*
X56250000Y-121000000D01*
X67000000Y-91000000D02*
X62500000Y-91000000D01*
X71835000Y-86165000D02*
X67000000Y-91000000D01*
X59000000Y-94500000D02*
X59000000Y-118250000D01*
X71835000Y-74880000D02*
X71835000Y-86165000D01*
%TO.N,Net-(U1-GPIO1{slash}D0{slash}A0)*%
X98500000Y-78000000D02*
X97000000Y-78000000D01*
X109000000Y-82500000D02*
X103000000Y-82500000D01*
X115000000Y-88500000D02*
X109000000Y-82500000D01*
X115000000Y-159500000D02*
X115000000Y-88500000D01*
X114980000Y-159500000D02*
X115000000Y-159500000D01*
X100120000Y-174360000D02*
X114980000Y-159500000D01*
X103000000Y-82500000D02*
X98500000Y-78000000D01*
X92620000Y-174360000D02*
X100120000Y-174360000D01*
%TO.N,Net-(Brd1-GND)*%
X128000000Y-94500000D02*
X128000000Y-81000000D01*
%TO.N,Net-(U1-GPIO4{slash}D3{slash}A3)*%
X68000000Y-134500000D02*
X85000000Y-151500000D01*
X68000000Y-104000000D02*
X68000000Y-134500000D01*
X69000000Y-103000000D02*
X68000000Y-104000000D01*
%TO.N,Net-(U1-GPIO3{slash}D2{slash}A2)*%
X94500000Y-81500000D02*
X94000000Y-81500000D01*
X107500000Y-142980000D02*
X107500000Y-94500000D01*
X107500000Y-94500000D02*
X94500000Y-81500000D01*
X98980000Y-151500000D02*
X107500000Y-142980000D01*
X92620000Y-151500000D02*
X98980000Y-151500000D01*
%TO.N,Net-(Brd1-SDA)*%
X75500000Y-70000000D02*
X75500000Y-67500000D01*
X79620000Y-74880000D02*
X81000000Y-73500000D01*
X79000000Y-74880000D02*
X79620000Y-74880000D01*
%TO.N,Net-(Brd1-SCL)*%
X93000000Y-72000000D02*
X97000000Y-76000000D01*
X78000000Y-72000000D02*
X93000000Y-72000000D01*
X76460000Y-73540000D02*
X78000000Y-72000000D01*
X97000000Y-76000000D02*
X97000000Y-76500000D01*
X76460000Y-74880000D02*
X76460000Y-73540000D01*
X104500000Y-77000000D02*
X104080000Y-76580000D01*
X104500000Y-77500000D02*
X104500000Y-77000000D01*
X104080000Y-76580000D02*
X104080000Y-74880000D01*
X77500000Y-90500000D02*
X88915000Y-101915000D01*
X77500000Y-75920000D02*
X77500000Y-90500000D01*
X88915000Y-101915000D02*
X88915000Y-109380000D01*
X76460000Y-74880000D02*
X77500000Y-75920000D01*
%TO.N,Net-(Brd1-SDA)*%
X79000000Y-89000000D02*
X79000000Y-74880000D01*
X91455000Y-101455000D02*
X79000000Y-89000000D01*
X91455000Y-109380000D02*
X91455000Y-101455000D01*
X108000000Y-78500000D02*
X106620000Y-77120000D01*
X106620000Y-77120000D02*
X106620000Y-74880000D01*
X91455000Y-108045000D02*
X103500000Y-96000000D01*
X91455000Y-109380000D02*
X91455000Y-108045000D01*
%TO.N,Net-(Brd1-VCC)*%
X86375000Y-106125000D02*
X86375000Y-109380000D01*
X87174265Y-105325735D02*
X86375000Y-106125000D01*
X101540000Y-77040000D02*
X104500000Y-80000000D01*
X101540000Y-74880000D02*
X101540000Y-77040000D01*
X102750000Y-73670000D02*
X101540000Y-74880000D01*
X102750000Y-71750000D02*
X102750000Y-73670000D01*
X95500000Y-71500000D02*
X95000000Y-71000000D01*
X73920000Y-74080000D02*
X73920000Y-74880000D01*
X95000000Y-71000000D02*
X77000000Y-71000000D01*
X77000000Y-71000000D02*
X73920000Y-74080000D01*
%TO.N,Net-(Brd1-GND)*%
X100000000Y-74215000D02*
X99335000Y-74880000D01*
X100000000Y-70500000D02*
X100000000Y-74215000D01*
X101000000Y-69500000D02*
X100000000Y-70500000D01*
X121000000Y-70500000D02*
X120000000Y-69500000D01*
X120000000Y-69500000D02*
X101000000Y-69500000D01*
X121000000Y-78000000D02*
X121000000Y-70500000D01*
X128000000Y-81000000D02*
X124000000Y-81000000D01*
X124000000Y-81000000D02*
X121000000Y-78000000D01*
%TO.N,Net-(Brd1-SCL)*%
X76160000Y-74880000D02*
X76460000Y-74880000D01*
X74500000Y-76540000D02*
X76160000Y-74880000D01*
X74500000Y-80500000D02*
X74500000Y-76540000D01*
%TO.N,Net-(Brd1-GND)*%
X96500000Y-70000000D02*
X79500000Y-70000000D01*
X71380000Y-74880000D02*
X70380000Y-74880000D01*
X70380000Y-74880000D02*
X67000000Y-71500000D01*
X99000000Y-72500000D02*
X99000000Y-74880000D01*
X96500000Y-70000000D02*
X99000000Y-72500000D01*
%TO.N,Net-(Brd1-VCC)*%
X73500000Y-74460000D02*
X73500000Y-56500000D01*
X73920000Y-74880000D02*
X73500000Y-74460000D01*
X73500000Y-56500000D02*
X77500000Y-52500000D01*
%TO.N,Net-(Brd1-GND)*%
X128000000Y-78000000D02*
X128000000Y-81000000D01*
X122500000Y-72500000D02*
X128000000Y-78000000D01*
X122500000Y-66500000D02*
X122500000Y-72500000D01*
X106500000Y-50500000D02*
X122500000Y-66500000D01*
X105500000Y-50500000D02*
X106500000Y-50500000D01*
%TO.N,Net-(U1-GPIO9{slash}D10{slash}A10{slash}MOSI)*%
X140000000Y-49000000D02*
X140000000Y-86500000D01*
X140000000Y-86500000D02*
X138500000Y-88000000D01*
X126500000Y-35500000D02*
X140000000Y-49000000D01*
X83500000Y-35500000D02*
X126500000Y-35500000D01*
%TO.N,Net-(U1-GPIO8{slash}D9{slash}A9{slash}MISO)*%
X137500000Y-50500000D02*
X137500000Y-68500000D01*
X137500000Y-68500000D02*
X136000000Y-70000000D01*
X78500000Y-39000000D02*
X126000000Y-39000000D01*
X78000000Y-39500000D02*
X78500000Y-39000000D01*
X126000000Y-39000000D02*
X137500000Y-50500000D01*
X136000000Y-70000000D02*
X133500000Y-70000000D01*
%TO.N,Net-(D2-A)*%
X136500000Y-92000000D02*
X136500000Y-88000000D01*
X134000000Y-94500000D02*
X136500000Y-92000000D01*
X130540000Y-94500000D02*
X134000000Y-94500000D01*
%TO.N,Net-(D1-A)*%
X130540000Y-70960000D02*
X131500000Y-70000000D01*
X130540000Y-81000000D02*
X130540000Y-70960000D01*
%TO.N,Net-(Brd1-GND)*%
X43750000Y-121000000D02*
X56250000Y-121000000D01*
%TO.N,Net-(SW3-A)*%
X43750000Y-116000000D02*
X56250000Y-116000000D01*
%TD*%
M02*
