M48
; DRILL file {KiCad 8.0.8} date 2025-03-02T18:56:51-0800
; FORMAT={-:-/ absolute / inch / decimal}
; #@! TF.CreationDate,2025-03-02T18:56:51-08:00
; #@! TF.GenerationSoftware,Kicad,Pcbnew,8.0.8
; #@! TF.FileFunction,Plated,1,2,PTH
FMAT,2
INCH
; #@! TA.AperFunction,Plated,PTH,ViaDrill
T1C0.0118
; #@! TA.AperFunction,Plated,PTH,ComponentDrill
T2C0.0335
; #@! TA.AperFunction,Plated,PTH,ComponentDrill
T3C0.0350
; #@! TA.AperFunction,Plated,PTH,ComponentDrill
T4C0.0354
; #@! TA.AperFunction,Plated,PTH,ComponentDrill
T5C0.0394
; #@! TA.AperFunction,Plated,PTH,ComponentDrill
T6C0.0512
%
G90
G05
T1
X2.1654Y-2.1654
X2.4016Y-4.7835
X2.6378Y-2.815
X2.7165Y-4.0551
X2.8051Y-4.3012
X2.9331Y-3.1693
X2.9724Y-2.6575
X2.9724Y-2.7559
X3.0512Y-2.0669
X3.0709Y-1.5551
X3.1299Y-2.7559
X3.189Y-2.8937
X3.2874Y-1.3976
X3.4321Y-4.1467
X3.7008Y-3.2087
X3.7598Y-2.815
X3.8189Y-3.0118
X3.8189Y-3.0709
X4.0453Y-2.8248
X4.0748Y-3.7795
X4.1142Y-3.0512
X4.1142Y-3.1496
X4.1535Y-1.9882
X4.252Y-3.0906
X4.3898Y-6.7028
T2
X3.3465Y-5.9646
X3.3465Y-6.8646
X3.6465Y-5.9646
X3.6465Y-6.8646
T3
X2.7465Y-1.9226
X2.7465Y-2.5226
X2.8465Y-1.9226
X2.8465Y-2.5226
X2.9465Y-1.9226
X2.9465Y-2.5226
X3.0465Y-1.9226
X3.0465Y-2.5226
X3.1465Y-1.9226
X3.1465Y-2.5226
X3.2465Y-1.9226
X3.2465Y-2.5226
X3.3465Y-1.9226
X3.3465Y-2.5226
T4
X5.0394Y-3.189
X5.0394Y-3.7205
X5.1394Y-3.189
X5.1394Y-3.7205
T5
X2.8102Y-2.948
X2.9102Y-2.948
X3.0102Y-2.948
X3.1102Y-2.948
X3.3006Y-4.3063
X3.4006Y-4.3063
X3.5006Y-4.3063
X3.6006Y-4.3063
X3.837Y-1.752
X3.8898Y-2.2047
X3.8898Y-2.2835
X3.8976Y-2.948
X3.937Y-1.752
X3.9976Y-2.948
X4.037Y-1.752
X4.0976Y-2.948
X4.1976Y-2.948
T6
X1.7224Y-4.5669
X1.7224Y-4.7638
X2.2146Y-4.5669
X2.2146Y-4.7638
M30
