M48
; DRILL file {KiCad 8.0.8} date 2025-02-12T10:11:08-0800
; FORMAT={-:-/ absolute / inch / decimal}
; #@! TF.CreationDate,2025-02-12T10:11:09-08:00
; #@! TF.GenerationSoftware,Kicad,Pcbnew,8.0.8
; #@! TF.FileFunction,Plated,1,2,PTH
FMAT,2
INCH
; #@! TA.AperFunction,Plated,PTH,ViaDrill
T1C0.0118
; #@! TA.AperFunction,Plated,PTH,ComponentDrill
T2C0.0400
; #@! TA.AperFunction,Plated,PTH,ComponentDrill
T3C0.0669
%
G90
G05
T1
X3.2677Y-3.622
X4.1339Y-4.252
X4.1732Y-3.878
X4.2126Y-4.0354
X4.4291Y-3.2874
X5.315Y-4.3504
T2
X3.5142Y-2.9906
X3.5142Y-3.0906
X3.5142Y-3.1906
X3.5142Y-3.2906
X3.5142Y-3.3906
X3.5142Y-3.4906
X3.5142Y-3.5906
X4.1142Y-2.9906
X4.1142Y-3.0906
X4.1142Y-3.1906
X4.1142Y-3.2906
X4.1142Y-3.3906
X4.1142Y-3.4906
X4.1142Y-3.5906
T3
X4.9016Y-3.0118
X5.0984Y-3.0118
M30
